<?xml version="1.0" encoding="utf-8" standalone="no"?>
<!DOCTYPE svg PUBLIC "-//W3C//DTD SVG 1.1//EN"
  "http://www.w3.org/Graphics/SVG/1.1/DTD/svg11.dtd">
<svg xmlns:xlink="http://www.w3.org/1999/xlink" width="720pt" height="432pt" viewBox="0 0 720 432" xmlns="http://www.w3.org/2000/svg" version="1.1">
 <metadata>
  <rdf:RDF xmlns:dc="http://purl.org/dc/elements/1.1/" xmlns:cc="http://creativecommons.org/ns#" xmlns:rdf="http://www.w3.org/1999/02/22-rdf-syntax-ns#">
   <cc:Work>
    <dc:type rdf:resource="http://purl.org/dc/dcmitype/StillImage"/>
    <dc:date>2023-02-05T12:51:00.141022</dc:date>
    <dc:format>image/svg+xml</dc:format>
    <dc:creator>
     <cc:Agent>
      <dc:title>Matplotlib v3.5.2, https://matplotlib.org/</dc:title>
     </cc:Agent>
    </dc:creator>
   </cc:Work>
  </rdf:RDF>
 </metadata>
 <defs>
  <style type="text/css">*{stroke-linejoin: round; stroke-linecap: butt}</style>
 </defs>
 <g id="figure_1">
  <g id="patch_1">
   <path d="M 0 432 
L 720 432 
L 720 0 
L 0 0 
z
" style="fill: #0d1117"/>
  </g>
  <g id="axes_1">
   <g id="patch_2">
    <path d="M 90 384.48 
L 648 384.48 
L 648 51.84 
L 90 51.84 
z
" style="fill: #0d1117"/>
   </g>
   <g id="matplotlib.axis_1">
    <g id="text_1">
     <!-- n -->
     <g style="fill: #ffffff" transform="translate(365.83125 399.578438)scale(0.1 -0.1)">
      <defs>
       <path id="DejaVuSans-6e" d="M 3513 2113 
L 3513 0 
L 2938 0 
L 2938 2094 
Q 2938 2591 2744 2837 
Q 2550 3084 2163 3084 
Q 1697 3084 1428 2787 
Q 1159 2491 1159 1978 
L 1159 0 
L 581 0 
L 581 3500 
L 1159 3500 
L 1159 2956 
Q 1366 3272 1645 3428 
Q 1925 3584 2291 3584 
Q 2894 3584 3203 3211 
Q 3513 2838 3513 2113 
z
" transform="scale(0.015625)"/>
      </defs>
      <use xlink:href="#DejaVuSans-6e"/>
     </g>
    </g>
   </g>
   <g id="matplotlib.axis_2">
    <g id="text_2">
     <!-- time -->
     <g style="fill: #ffffff" transform="translate(80.420312 229.456094)rotate(-90)scale(0.1 -0.1)">
      <defs>
       <path id="DejaVuSans-74" d="M 1172 4494 
L 1172 3500 
L 2356 3500 
L 2356 3053 
L 1172 3053 
L 1172 1153 
Q 1172 725 1289 603 
Q 1406 481 1766 481 
L 2356 481 
L 2356 0 
L 1766 0 
Q 1100 0 847 248 
Q 594 497 594 1153 
L 594 3053 
L 172 3053 
L 172 3500 
L 594 3500 
L 594 4494 
L 1172 4494 
z
" transform="scale(0.015625)"/>
       <path id="DejaVuSans-69" d="M 603 3500 
L 1178 3500 
L 1178 0 
L 603 0 
L 603 3500 
z
M 603 4863 
L 1178 4863 
L 1178 4134 
L 603 4134 
L 603 4863 
z
" transform="scale(0.015625)"/>
       <path id="DejaVuSans-6d" d="M 3328 2828 
Q 3544 3216 3844 3400 
Q 4144 3584 4550 3584 
Q 5097 3584 5394 3201 
Q 5691 2819 5691 2113 
L 5691 0 
L 5113 0 
L 5113 2094 
Q 5113 2597 4934 2840 
Q 4756 3084 4391 3084 
Q 3944 3084 3684 2787 
Q 3425 2491 3425 1978 
L 3425 0 
L 2847 0 
L 2847 2094 
Q 2847 2600 2669 2842 
Q 2491 3084 2119 3084 
Q 1678 3084 1418 2786 
Q 1159 2488 1159 1978 
L 1159 0 
L 581 0 
L 581 3500 
L 1159 3500 
L 1159 2956 
Q 1356 3278 1631 3431 
Q 1906 3584 2284 3584 
Q 2666 3584 2933 3390 
Q 3200 3197 3328 2828 
z
" transform="scale(0.015625)"/>
       <path id="DejaVuSans-65" d="M 3597 1894 
L 3597 1613 
L 953 1613 
Q 991 1019 1311 708 
Q 1631 397 2203 397 
Q 2534 397 2845 478 
Q 3156 559 3463 722 
L 3463 178 
Q 3153 47 2828 -22 
Q 2503 -91 2169 -91 
Q 1331 -91 842 396 
Q 353 884 353 1716 
Q 353 2575 817 3079 
Q 1281 3584 2069 3584 
Q 2775 3584 3186 3129 
Q 3597 2675 3597 1894 
z
M 3022 2063 
Q 3016 2534 2758 2815 
Q 2500 3097 2075 3097 
Q 1594 3097 1305 2825 
Q 1016 2553 972 2059 
L 3022 2063 
z
" transform="scale(0.015625)"/>
      </defs>
      <use xlink:href="#DejaVuSans-74"/>
      <use xlink:href="#DejaVuSans-69" x="39.208984"/>
      <use xlink:href="#DejaVuSans-6d" x="66.992188"/>
      <use xlink:href="#DejaVuSans-65" x="164.404297"/>
     </g>
    </g>
   </g>
   <g id="line2d_1">
    <path d="M 90 384.48 
L 95.58 381.1536 
L 101.16 371.1744 
L 106.74 354.5424 
L 112.32 331.2576 
L 117.9 301.32 
L 123.48 264.7296 
L 129.06 221.4864 
L 134.64 171.5904 
L 140.22 115.0416 
L 145.8 51.84 
L 150.020882 -1 
" clip-path="url(#pcda1f4bdad)" style="fill: none; stroke: #1f77b4; stroke-width: 1.5; stroke-linecap: square"/>
   </g>
   <g id="line2d_2">
    <path d="M 90 384.48 
L 95.58 381.1536 
L 101.16 373.935561 
L 106.74 364.5216 
L 112.32 353.585354 
L 117.9 341.486904 
L 123.48 328.449688 
L 129.06 314.6256 
L 134.64 300.124492 
L 140.22 285.029445 
L 145.8 269.405467 
L 151.38 253.304788 
L 156.96 236.770288 
L 162.54 219.83779 
L 168.12 202.537668 
L 173.7 184.896 
L 179.28 166.935418 
L 184.86 148.675745 
L 190.44 130.134491 
L 196.02 111.327229 
L 201.6 92.267906 
L 207.18 72.96908 
L 212.76 53.442117 
L 218.34 33.697357 
L 223.92 13.744242 
L 228.002452 -1 
" clip-path="url(#pcda1f4bdad)" style="fill: none; stroke: #ff7f0e; stroke-width: 1.5; stroke-linecap: square"/>
   </g>
   <g id="line2d_3">
    <path d="M 90 384.48 
L 95.58 381.1536 
L 101.16 377.8272 
L 106.74 374.5008 
L 112.32 371.1744 
L 117.9 367.848 
L 123.48 364.5216 
L 129.06 361.1952 
L 134.64 357.8688 
L 140.22 354.5424 
L 145.8 351.216 
L 151.38 347.8896 
L 156.96 344.5632 
L 162.54 341.2368 
L 168.12 337.9104 
L 173.7 334.584 
L 179.28 331.2576 
L 184.86 327.9312 
L 190.44 324.6048 
L 196.02 321.2784 
L 201.6 317.952 
L 207.18 314.6256 
L 212.76 311.2992 
L 218.34 307.9728 
L 223.92 304.6464 
L 229.5 301.32 
L 235.08 297.9936 
L 240.66 294.6672 
L 246.24 291.3408 
L 251.82 288.0144 
L 257.4 284.688 
L 262.98 281.3616 
L 268.56 278.0352 
L 274.14 274.7088 
L 279.72 271.3824 
L 285.3 268.056 
L 290.88 264.7296 
L 296.46 261.4032 
L 302.04 258.0768 
L 307.62 254.7504 
L 313.2 251.424 
L 318.78 248.0976 
L 324.36 244.7712 
L 329.94 241.4448 
L 335.52 238.1184 
L 341.1 234.792 
L 346.68 231.4656 
L 352.26 228.1392 
L 357.84 224.8128 
L 363.42 221.4864 
L 369 218.16 
L 374.58 214.8336 
L 380.16 211.5072 
L 385.74 208.1808 
L 391.32 204.8544 
L 396.9 201.528 
L 402.48 198.2016 
L 408.06 194.8752 
L 413.64 191.5488 
L 419.22 188.2224 
L 424.8 184.896 
L 430.38 181.5696 
L 435.96 178.2432 
L 441.54 174.9168 
L 447.12 171.5904 
L 452.7 168.264 
L 458.28 164.9376 
L 463.86 161.6112 
L 469.44 158.2848 
L 475.02 154.9584 
L 480.6 151.632 
L 486.18 148.3056 
L 491.76 144.9792 
L 497.34 141.6528 
L 502.92 138.3264 
L 508.5 135 
L 514.08 131.6736 
L 519.66 128.3472 
L 525.24 125.0208 
L 530.82 121.6944 
L 536.4 118.368 
L 541.98 115.0416 
L 547.56 111.7152 
L 553.14 108.3888 
L 558.72 105.0624 
L 564.3 101.736 
L 569.88 98.4096 
L 575.46 95.0832 
L 581.04 91.7568 
L 586.62 88.4304 
L 592.2 85.104 
L 597.78 81.7776 
L 603.36 78.4512 
L 608.94 75.1248 
L 614.52 71.7984 
L 620.1 68.472 
L 625.68 65.1456 
L 631.26 61.8192 
L 636.84 58.4928 
L 642.42 55.1664 
" clip-path="url(#pcda1f4bdad)" style="fill: none; stroke: #2ca02c; stroke-width: 1.5; stroke-linecap: square"/>
   </g>
   <g id="line2d_4">
    <path d="M 90 384.48 
L 95.58 381.1536 
L 101.16 379.207781 
L 106.74 377.8272 
L 112.32 376.756338 
L 117.9 375.881381 
L 123.48 375.141615 
L 129.06 374.5008 
L 134.64 373.935561 
L 140.22 373.429938 
L 145.8 372.972547 
L 151.38 372.554981 
L 156.96 372.170857 
L 162.54 371.815215 
L 168.12 371.484119 
L 173.7 371.1744 
L 179.28 370.883464 
L 184.86 370.609161 
L 190.44 370.349694 
L 196.02 370.103538 
L 201.6 369.869395 
L 207.18 369.646147 
L 212.76 369.432824 
L 218.34 369.228581 
L 223.92 369.032677 
L 229.5 368.844457 
L 235.08 368.663342 
L 240.66 368.488815 
L 246.24 368.320412 
L 251.82 368.157719 
L 257.4 368.000361 
L 262.98 367.848 
L 268.56 367.700327 
L 274.14 367.557064 
L 279.72 367.417953 
L 285.3 367.282761 
L 290.88 367.151274 
L 296.46 367.023294 
L 302.04 366.898638 
L 307.62 366.777138 
L 313.2 366.658639 
L 318.78 366.542995 
L 324.36 366.430073 
L 329.94 366.319747 
L 335.52 366.2119 
L 341.1 366.106424 
L 346.68 366.003216 
L 352.26 365.902181 
L 357.84 365.803229 
L 363.42 365.706277 
L 369 365.611244 
L 374.58 365.518057 
L 380.16 365.426645 
L 385.74 365.336942 
L 391.32 365.248885 
L 396.9 365.162415 
L 402.48 365.077475 
L 408.06 364.994012 
L 413.64 364.911976 
L 419.22 364.831319 
L 424.8 364.751995 
L 430.38 364.673961 
L 435.96 364.597176 
L 441.54 364.5216 
L 447.12 364.447196 
L 452.7 364.373927 
L 458.28 364.301761 
L 463.86 364.230664 
L 469.44 364.160604 
L 475.02 364.091553 
L 480.6 364.023481 
L 486.18 363.956361 
L 491.76 363.890168 
L 497.34 363.824874 
L 502.92 363.760458 
L 508.5 363.696894 
L 514.08 363.634161 
L 519.66 363.572238 
L 525.24 363.511104 
L 530.82 363.450738 
L 536.4 363.391123 
L 541.98 363.332239 
L 547.56 363.274069 
L 553.14 363.216595 
L 558.72 363.159802 
L 564.3 363.103673 
L 569.88 363.048193 
L 575.46 362.993347 
L 581.04 362.93912 
L 586.62 362.8855 
L 592.2 362.832472 
L 597.78 362.780024 
L 603.36 362.728142 
L 608.94 362.676816 
L 614.52 362.626032 
L 620.1 362.575781 
L 625.68 362.52605 
L 631.26 362.476829 
L 636.84 362.428108 
L 642.42 362.379877 
" clip-path="url(#pcda1f4bdad)" style="fill: none; stroke: #d62728; stroke-width: 1.5; stroke-linecap: square"/>
   </g>
   <g id="line2d_5">
    <path d="M 90 381.1536 
L 95.58 381.1536 
L 101.16 381.1536 
L 106.74 381.1536 
L 112.32 381.1536 
L 117.9 381.1536 
L 123.48 381.1536 
L 129.06 381.1536 
L 134.64 381.1536 
L 140.22 381.1536 
L 145.8 381.1536 
L 151.38 381.1536 
L 156.96 381.1536 
L 162.54 381.1536 
L 168.12 381.1536 
L 173.7 381.1536 
L 179.28 381.1536 
L 184.86 381.1536 
L 190.44 381.1536 
L 196.02 381.1536 
L 201.6 381.1536 
L 207.18 381.1536 
L 212.76 381.1536 
L 218.34 381.1536 
L 223.92 381.1536 
L 229.5 381.1536 
L 235.08 381.1536 
L 240.66 381.1536 
L 246.24 381.1536 
L 251.82 381.1536 
L 257.4 381.1536 
L 262.98 381.1536 
L 268.56 381.1536 
L 274.14 381.1536 
L 279.72 381.1536 
L 285.3 381.1536 
L 290.88 381.1536 
L 296.46 381.1536 
L 302.04 381.1536 
L 307.62 381.1536 
L 313.2 381.1536 
L 318.78 381.1536 
L 324.36 381.1536 
L 329.94 381.1536 
L 335.52 381.1536 
L 341.1 381.1536 
L 346.68 381.1536 
L 352.26 381.1536 
L 357.84 381.1536 
L 363.42 381.1536 
L 369 381.1536 
L 374.58 381.1536 
L 380.16 381.1536 
L 385.74 381.1536 
L 391.32 381.1536 
L 396.9 381.1536 
L 402.48 381.1536 
L 408.06 381.1536 
L 413.64 381.1536 
L 419.22 381.1536 
L 424.8 381.1536 
L 430.38 381.1536 
L 435.96 381.1536 
L 441.54 381.1536 
L 447.12 381.1536 
L 452.7 381.1536 
L 458.28 381.1536 
L 463.86 381.1536 
L 469.44 381.1536 
L 475.02 381.1536 
L 480.6 381.1536 
L 486.18 381.1536 
L 491.76 381.1536 
L 497.34 381.1536 
L 502.92 381.1536 
L 508.5 381.1536 
L 514.08 381.1536 
L 519.66 381.1536 
L 525.24 381.1536 
L 530.82 381.1536 
L 536.4 381.1536 
L 541.98 381.1536 
L 547.56 381.1536 
L 553.14 381.1536 
L 558.72 381.1536 
L 564.3 381.1536 
L 569.88 381.1536 
L 575.46 381.1536 
L 581.04 381.1536 
L 586.62 381.1536 
L 592.2 381.1536 
L 597.78 381.1536 
L 603.36 381.1536 
L 608.94 381.1536 
L 614.52 381.1536 
L 620.1 381.1536 
L 625.68 381.1536 
L 631.26 381.1536 
L 636.84 381.1536 
L 642.42 381.1536 
" clip-path="url(#pcda1f4bdad)" style="fill: none; stroke: #9467bd; stroke-width: 1.5; stroke-linecap: square"/>
   </g>
   <g id="line2d_6">
    <path d="M 90 381.1536 
L 95.58 377.8272 
L 101.16 371.1744 
L 106.74 357.8688 
L 112.32 331.2576 
L 117.9 278.0352 
L 123.48 171.5904 
L 128.003727 -1 
" clip-path="url(#pcda1f4bdad)" style="fill: none; stroke: #8c564b; stroke-width: 1.5; stroke-linecap: square"/>
   </g>
   <g id="line2d_7">
    <path d="M 90 381.1536 
L 95.58 381.1536 
L 101.16 377.8272 
L 106.74 364.5216 
L 112.32 304.6464 
L 117.660818 -1 
" clip-path="url(#pcda1f4bdad)" style="fill: none; stroke: #e377c2; stroke-width: 1.5; stroke-linecap: square"/>
   </g>
   <g id="patch_3">
    <path d="M 90 384.48 
L 90 51.84 
" style="fill: none; stroke: #ffffff; stroke-width: 0.8; stroke-linejoin: miter; stroke-linecap: square"/>
   </g>
   <g id="patch_4">
    <path d="M 648 384.48 
L 648 51.84 
" style="fill: none; stroke: #ffffff; stroke-width: 0.8; stroke-linejoin: miter; stroke-linecap: square"/>
   </g>
   <g id="patch_5">
    <path d="M 90 384.48 
L 648 384.48 
" style="fill: none; stroke: #ffffff; stroke-width: 0.8; stroke-linejoin: miter; stroke-linecap: square"/>
   </g>
   <g id="patch_6">
    <path d="M 90 51.84 
L 648 51.84 
" style="fill: none; stroke: #ffffff; stroke-width: 0.8; stroke-linejoin: miter; stroke-linecap: square"/>
   </g>
   <g id="text_3">
    <!-- Polynomial and Exponential Time Complexity -->
    <g style="fill: #ffffff" transform="translate(233.413125 45.84)scale(0.12 -0.12)">
     <defs>
      <path id="DejaVuSans-50" d="M 1259 4147 
L 1259 2394 
L 2053 2394 
Q 2494 2394 2734 2622 
Q 2975 2850 2975 3272 
Q 2975 3691 2734 3919 
Q 2494 4147 2053 4147 
L 1259 4147 
z
M 628 4666 
L 2053 4666 
Q 2838 4666 3239 4311 
Q 3641 3956 3641 3272 
Q 3641 2581 3239 2228 
Q 2838 1875 2053 1875 
L 1259 1875 
L 1259 0 
L 628 0 
L 628 4666 
z
" transform="scale(0.015625)"/>
      <path id="DejaVuSans-6f" d="M 1959 3097 
Q 1497 3097 1228 2736 
Q 959 2375 959 1747 
Q 959 1119 1226 758 
Q 1494 397 1959 397 
Q 2419 397 2687 759 
Q 2956 1122 2956 1747 
Q 2956 2369 2687 2733 
Q 2419 3097 1959 3097 
z
M 1959 3584 
Q 2709 3584 3137 3096 
Q 3566 2609 3566 1747 
Q 3566 888 3137 398 
Q 2709 -91 1959 -91 
Q 1206 -91 779 398 
Q 353 888 353 1747 
Q 353 2609 779 3096 
Q 1206 3584 1959 3584 
z
" transform="scale(0.015625)"/>
      <path id="DejaVuSans-6c" d="M 603 4863 
L 1178 4863 
L 1178 0 
L 603 0 
L 603 4863 
z
" transform="scale(0.015625)"/>
      <path id="DejaVuSans-79" d="M 2059 -325 
Q 1816 -950 1584 -1140 
Q 1353 -1331 966 -1331 
L 506 -1331 
L 506 -850 
L 844 -850 
Q 1081 -850 1212 -737 
Q 1344 -625 1503 -206 
L 1606 56 
L 191 3500 
L 800 3500 
L 1894 763 
L 2988 3500 
L 3597 3500 
L 2059 -325 
z
" transform="scale(0.015625)"/>
      <path id="DejaVuSans-61" d="M 2194 1759 
Q 1497 1759 1228 1600 
Q 959 1441 959 1056 
Q 959 750 1161 570 
Q 1363 391 1709 391 
Q 2188 391 2477 730 
Q 2766 1069 2766 1631 
L 2766 1759 
L 2194 1759 
z
M 3341 1997 
L 3341 0 
L 2766 0 
L 2766 531 
Q 2569 213 2275 61 
Q 1981 -91 1556 -91 
Q 1019 -91 701 211 
Q 384 513 384 1019 
Q 384 1609 779 1909 
Q 1175 2209 1959 2209 
L 2766 2209 
L 2766 2266 
Q 2766 2663 2505 2880 
Q 2244 3097 1772 3097 
Q 1472 3097 1187 3025 
Q 903 2953 641 2809 
L 641 3341 
Q 956 3463 1253 3523 
Q 1550 3584 1831 3584 
Q 2591 3584 2966 3190 
Q 3341 2797 3341 1997 
z
" transform="scale(0.015625)"/>
      <path id="DejaVuSans-20" transform="scale(0.015625)"/>
      <path id="DejaVuSans-64" d="M 2906 2969 
L 2906 4863 
L 3481 4863 
L 3481 0 
L 2906 0 
L 2906 525 
Q 2725 213 2448 61 
Q 2172 -91 1784 -91 
Q 1150 -91 751 415 
Q 353 922 353 1747 
Q 353 2572 751 3078 
Q 1150 3584 1784 3584 
Q 2172 3584 2448 3432 
Q 2725 3281 2906 2969 
z
M 947 1747 
Q 947 1113 1208 752 
Q 1469 391 1925 391 
Q 2381 391 2643 752 
Q 2906 1113 2906 1747 
Q 2906 2381 2643 2742 
Q 2381 3103 1925 3103 
Q 1469 3103 1208 2742 
Q 947 2381 947 1747 
z
" transform="scale(0.015625)"/>
      <path id="DejaVuSans-45" d="M 628 4666 
L 3578 4666 
L 3578 4134 
L 1259 4134 
L 1259 2753 
L 3481 2753 
L 3481 2222 
L 1259 2222 
L 1259 531 
L 3634 531 
L 3634 0 
L 628 0 
L 628 4666 
z
" transform="scale(0.015625)"/>
      <path id="DejaVuSans-78" d="M 3513 3500 
L 2247 1797 
L 3578 0 
L 2900 0 
L 1881 1375 
L 863 0 
L 184 0 
L 1544 1831 
L 300 3500 
L 978 3500 
L 1906 2253 
L 2834 3500 
L 3513 3500 
z
" transform="scale(0.015625)"/>
      <path id="DejaVuSans-70" d="M 1159 525 
L 1159 -1331 
L 581 -1331 
L 581 3500 
L 1159 3500 
L 1159 2969 
Q 1341 3281 1617 3432 
Q 1894 3584 2278 3584 
Q 2916 3584 3314 3078 
Q 3713 2572 3713 1747 
Q 3713 922 3314 415 
Q 2916 -91 2278 -91 
Q 1894 -91 1617 61 
Q 1341 213 1159 525 
z
M 3116 1747 
Q 3116 2381 2855 2742 
Q 2594 3103 2138 3103 
Q 1681 3103 1420 2742 
Q 1159 2381 1159 1747 
Q 1159 1113 1420 752 
Q 1681 391 2138 391 
Q 2594 391 2855 752 
Q 3116 1113 3116 1747 
z
" transform="scale(0.015625)"/>
      <path id="DejaVuSans-54" d="M -19 4666 
L 3928 4666 
L 3928 4134 
L 2272 4134 
L 2272 0 
L 1638 0 
L 1638 4134 
L -19 4134 
L -19 4666 
z
" transform="scale(0.015625)"/>
      <path id="DejaVuSans-43" d="M 4122 4306 
L 4122 3641 
Q 3803 3938 3442 4084 
Q 3081 4231 2675 4231 
Q 1875 4231 1450 3742 
Q 1025 3253 1025 2328 
Q 1025 1406 1450 917 
Q 1875 428 2675 428 
Q 3081 428 3442 575 
Q 3803 722 4122 1019 
L 4122 359 
Q 3791 134 3420 21 
Q 3050 -91 2638 -91 
Q 1578 -91 968 557 
Q 359 1206 359 2328 
Q 359 3453 968 4101 
Q 1578 4750 2638 4750 
Q 3056 4750 3426 4639 
Q 3797 4528 4122 4306 
z
" transform="scale(0.015625)"/>
     </defs>
     <use xlink:href="#DejaVuSans-50"/>
     <use xlink:href="#DejaVuSans-6f" x="56.677734"/>
     <use xlink:href="#DejaVuSans-6c" x="117.859375"/>
     <use xlink:href="#DejaVuSans-79" x="145.642578"/>
     <use xlink:href="#DejaVuSans-6e" x="204.822266"/>
     <use xlink:href="#DejaVuSans-6f" x="268.201172"/>
     <use xlink:href="#DejaVuSans-6d" x="329.382812"/>
     <use xlink:href="#DejaVuSans-69" x="426.794922"/>
     <use xlink:href="#DejaVuSans-61" x="454.578125"/>
     <use xlink:href="#DejaVuSans-6c" x="515.857422"/>
     <use xlink:href="#DejaVuSans-20" x="543.640625"/>
     <use xlink:href="#DejaVuSans-61" x="575.427734"/>
     <use xlink:href="#DejaVuSans-6e" x="636.707031"/>
     <use xlink:href="#DejaVuSans-64" x="700.085938"/>
     <use xlink:href="#DejaVuSans-20" x="763.5625"/>
     <use xlink:href="#DejaVuSans-45" x="795.349609"/>
     <use xlink:href="#DejaVuSans-78" x="858.533203"/>
     <use xlink:href="#DejaVuSans-70" x="917.712891"/>
     <use xlink:href="#DejaVuSans-6f" x="981.189453"/>
     <use xlink:href="#DejaVuSans-6e" x="1042.371094"/>
     <use xlink:href="#DejaVuSans-65" x="1105.75"/>
     <use xlink:href="#DejaVuSans-6e" x="1167.273438"/>
     <use xlink:href="#DejaVuSans-74" x="1230.652344"/>
     <use xlink:href="#DejaVuSans-69" x="1269.861328"/>
     <use xlink:href="#DejaVuSans-61" x="1297.644531"/>
     <use xlink:href="#DejaVuSans-6c" x="1358.923828"/>
     <use xlink:href="#DejaVuSans-20" x="1386.707031"/>
     <use xlink:href="#DejaVuSans-54" x="1418.494141"/>
     <use xlink:href="#DejaVuSans-69" x="1476.453125"/>
     <use xlink:href="#DejaVuSans-6d" x="1504.236328"/>
     <use xlink:href="#DejaVuSans-65" x="1601.648438"/>
     <use xlink:href="#DejaVuSans-20" x="1663.171875"/>
     <use xlink:href="#DejaVuSans-43" x="1694.958984"/>
     <use xlink:href="#DejaVuSans-6f" x="1764.783203"/>
     <use xlink:href="#DejaVuSans-6d" x="1825.964844"/>
     <use xlink:href="#DejaVuSans-70" x="1923.376953"/>
     <use xlink:href="#DejaVuSans-6c" x="1986.853516"/>
     <use xlink:href="#DejaVuSans-65" x="2014.636719"/>
     <use xlink:href="#DejaVuSans-78" x="2074.410156"/>
     <use xlink:href="#DejaVuSans-69" x="2133.589844"/>
     <use xlink:href="#DejaVuSans-74" x="2161.373047"/>
     <use xlink:href="#DejaVuSans-79" x="2200.582031"/>
    </g>
   </g>
   <g id="legend_1">
    <g id="patch_7">
     <path d="M 272.559375 162.586875 
L 465.440625 162.586875 
Q 467.440625 162.586875 467.440625 160.586875 
L 467.440625 58.84 
Q 467.440625 56.84 465.440625 56.84 
L 272.559375 56.84 
Q 270.559375 56.84 270.559375 58.84 
L 270.559375 160.586875 
Q 270.559375 162.586875 272.559375 162.586875 
z
" style="fill: #ffffff; opacity: 0.8; stroke: #cccccc; stroke-linejoin: miter"/>
    </g>
    <g id="line2d_8">
     <path d="M 274.559375 64.938437 
L 284.559375 64.938437 
L 294.559375 64.938437 
" style="fill: none; stroke: #1f77b4; stroke-width: 1.5; stroke-linecap: square"/>
    </g>
    <g id="text_4">
     <!-- Quadratic Runtime -->
     <g transform="translate(302.559375 68.438437)scale(0.1 -0.1)">
      <defs>
       <path id="DejaVuSans-51" d="M 2522 4238 
Q 1834 4238 1429 3725 
Q 1025 3213 1025 2328 
Q 1025 1447 1429 934 
Q 1834 422 2522 422 
Q 3209 422 3611 934 
Q 4013 1447 4013 2328 
Q 4013 3213 3611 3725 
Q 3209 4238 2522 4238 
z
M 3406 84 
L 4238 -825 
L 3475 -825 
L 2784 -78 
Q 2681 -84 2626 -87 
Q 2572 -91 2522 -91 
Q 1538 -91 948 567 
Q 359 1225 359 2328 
Q 359 3434 948 4092 
Q 1538 4750 2522 4750 
Q 3503 4750 4090 4092 
Q 4678 3434 4678 2328 
Q 4678 1516 4351 937 
Q 4025 359 3406 84 
z
" transform="scale(0.015625)"/>
       <path id="DejaVuSans-75" d="M 544 1381 
L 544 3500 
L 1119 3500 
L 1119 1403 
Q 1119 906 1312 657 
Q 1506 409 1894 409 
Q 2359 409 2629 706 
Q 2900 1003 2900 1516 
L 2900 3500 
L 3475 3500 
L 3475 0 
L 2900 0 
L 2900 538 
Q 2691 219 2414 64 
Q 2138 -91 1772 -91 
Q 1169 -91 856 284 
Q 544 659 544 1381 
z
M 1991 3584 
L 1991 3584 
z
" transform="scale(0.015625)"/>
       <path id="DejaVuSans-72" d="M 2631 2963 
Q 2534 3019 2420 3045 
Q 2306 3072 2169 3072 
Q 1681 3072 1420 2755 
Q 1159 2438 1159 1844 
L 1159 0 
L 581 0 
L 581 3500 
L 1159 3500 
L 1159 2956 
Q 1341 3275 1631 3429 
Q 1922 3584 2338 3584 
Q 2397 3584 2469 3576 
Q 2541 3569 2628 3553 
L 2631 2963 
z
" transform="scale(0.015625)"/>
       <path id="DejaVuSans-63" d="M 3122 3366 
L 3122 2828 
Q 2878 2963 2633 3030 
Q 2388 3097 2138 3097 
Q 1578 3097 1268 2742 
Q 959 2388 959 1747 
Q 959 1106 1268 751 
Q 1578 397 2138 397 
Q 2388 397 2633 464 
Q 2878 531 3122 666 
L 3122 134 
Q 2881 22 2623 -34 
Q 2366 -91 2075 -91 
Q 1284 -91 818 406 
Q 353 903 353 1747 
Q 353 2603 823 3093 
Q 1294 3584 2113 3584 
Q 2378 3584 2631 3529 
Q 2884 3475 3122 3366 
z
" transform="scale(0.015625)"/>
       <path id="DejaVuSans-52" d="M 2841 2188 
Q 3044 2119 3236 1894 
Q 3428 1669 3622 1275 
L 4263 0 
L 3584 0 
L 2988 1197 
Q 2756 1666 2539 1819 
Q 2322 1972 1947 1972 
L 1259 1972 
L 1259 0 
L 628 0 
L 628 4666 
L 2053 4666 
Q 2853 4666 3247 4331 
Q 3641 3997 3641 3322 
Q 3641 2881 3436 2590 
Q 3231 2300 2841 2188 
z
M 1259 4147 
L 1259 2491 
L 2053 2491 
Q 2509 2491 2742 2702 
Q 2975 2913 2975 3322 
Q 2975 3731 2742 3939 
Q 2509 4147 2053 4147 
L 1259 4147 
z
" transform="scale(0.015625)"/>
      </defs>
      <use xlink:href="#DejaVuSans-51"/>
      <use xlink:href="#DejaVuSans-75" x="78.710938"/>
      <use xlink:href="#DejaVuSans-61" x="142.089844"/>
      <use xlink:href="#DejaVuSans-64" x="203.369141"/>
      <use xlink:href="#DejaVuSans-72" x="266.845703"/>
      <use xlink:href="#DejaVuSans-61" x="307.958984"/>
      <use xlink:href="#DejaVuSans-74" x="369.238281"/>
      <use xlink:href="#DejaVuSans-69" x="408.447266"/>
      <use xlink:href="#DejaVuSans-63" x="436.230469"/>
      <use xlink:href="#DejaVuSans-20" x="491.210938"/>
      <use xlink:href="#DejaVuSans-52" x="522.998047"/>
      <use xlink:href="#DejaVuSans-75" x="587.980469"/>
      <use xlink:href="#DejaVuSans-6e" x="651.359375"/>
      <use xlink:href="#DejaVuSans-74" x="714.738281"/>
      <use xlink:href="#DejaVuSans-69" x="753.947266"/>
      <use xlink:href="#DejaVuSans-6d" x="781.730469"/>
      <use xlink:href="#DejaVuSans-65" x="879.142578"/>
     </g>
    </g>
    <g id="line2d_9">
     <path d="M 274.559375 79.616562 
L 284.559375 79.616562 
L 294.559375 79.616562 
" style="fill: none; stroke: #ff7f0e; stroke-width: 1.5; stroke-linecap: square"/>
    </g>
    <g id="text_5">
     <!-- Quasilinear Runtime -->
     <g transform="translate(302.559375 83.116562)scale(0.1 -0.1)">
      <defs>
       <path id="DejaVuSans-73" d="M 2834 3397 
L 2834 2853 
Q 2591 2978 2328 3040 
Q 2066 3103 1784 3103 
Q 1356 3103 1142 2972 
Q 928 2841 928 2578 
Q 928 2378 1081 2264 
Q 1234 2150 1697 2047 
L 1894 2003 
Q 2506 1872 2764 1633 
Q 3022 1394 3022 966 
Q 3022 478 2636 193 
Q 2250 -91 1575 -91 
Q 1294 -91 989 -36 
Q 684 19 347 128 
L 347 722 
Q 666 556 975 473 
Q 1284 391 1588 391 
Q 1994 391 2212 530 
Q 2431 669 2431 922 
Q 2431 1156 2273 1281 
Q 2116 1406 1581 1522 
L 1381 1569 
Q 847 1681 609 1914 
Q 372 2147 372 2553 
Q 372 3047 722 3315 
Q 1072 3584 1716 3584 
Q 2034 3584 2315 3537 
Q 2597 3491 2834 3397 
z
" transform="scale(0.015625)"/>
      </defs>
      <use xlink:href="#DejaVuSans-51"/>
      <use xlink:href="#DejaVuSans-75" x="78.710938"/>
      <use xlink:href="#DejaVuSans-61" x="142.089844"/>
      <use xlink:href="#DejaVuSans-73" x="203.369141"/>
      <use xlink:href="#DejaVuSans-69" x="255.46875"/>
      <use xlink:href="#DejaVuSans-6c" x="283.251953"/>
      <use xlink:href="#DejaVuSans-69" x="311.035156"/>
      <use xlink:href="#DejaVuSans-6e" x="338.818359"/>
      <use xlink:href="#DejaVuSans-65" x="402.197266"/>
      <use xlink:href="#DejaVuSans-61" x="463.720703"/>
      <use xlink:href="#DejaVuSans-72" x="525"/>
      <use xlink:href="#DejaVuSans-20" x="566.113281"/>
      <use xlink:href="#DejaVuSans-52" x="597.900391"/>
      <use xlink:href="#DejaVuSans-75" x="662.882812"/>
      <use xlink:href="#DejaVuSans-6e" x="726.261719"/>
      <use xlink:href="#DejaVuSans-74" x="789.640625"/>
      <use xlink:href="#DejaVuSans-69" x="828.849609"/>
      <use xlink:href="#DejaVuSans-6d" x="856.632812"/>
      <use xlink:href="#DejaVuSans-65" x="954.044922"/>
     </g>
    </g>
    <g id="line2d_10">
     <path d="M 274.559375 94.294687 
L 284.559375 94.294687 
L 294.559375 94.294687 
" style="fill: none; stroke: #2ca02c; stroke-width: 1.5; stroke-linecap: square"/>
    </g>
    <g id="text_6">
     <!-- Linear Runtime -->
     <g transform="translate(302.559375 97.794687)scale(0.1 -0.1)">
      <defs>
       <path id="DejaVuSans-4c" d="M 628 4666 
L 1259 4666 
L 1259 531 
L 3531 531 
L 3531 0 
L 628 0 
L 628 4666 
z
" transform="scale(0.015625)"/>
      </defs>
      <use xlink:href="#DejaVuSans-4c"/>
      <use xlink:href="#DejaVuSans-69" x="55.712891"/>
      <use xlink:href="#DejaVuSans-6e" x="83.496094"/>
      <use xlink:href="#DejaVuSans-65" x="146.875"/>
      <use xlink:href="#DejaVuSans-61" x="208.398438"/>
      <use xlink:href="#DejaVuSans-72" x="269.677734"/>
      <use xlink:href="#DejaVuSans-20" x="310.791016"/>
      <use xlink:href="#DejaVuSans-52" x="342.578125"/>
      <use xlink:href="#DejaVuSans-75" x="407.560547"/>
      <use xlink:href="#DejaVuSans-6e" x="470.939453"/>
      <use xlink:href="#DejaVuSans-74" x="534.318359"/>
      <use xlink:href="#DejaVuSans-69" x="573.527344"/>
      <use xlink:href="#DejaVuSans-6d" x="601.310547"/>
      <use xlink:href="#DejaVuSans-65" x="698.722656"/>
     </g>
    </g>
    <g id="line2d_11">
     <path d="M 274.559375 108.972812 
L 284.559375 108.972812 
L 294.559375 108.972812 
" style="fill: none; stroke: #d62728; stroke-width: 1.5; stroke-linecap: square"/>
    </g>
    <g id="text_7">
     <!-- Logarithmic Runtime -->
     <g transform="translate(302.559375 112.472812)scale(0.1 -0.1)">
      <defs>
       <path id="DejaVuSans-67" d="M 2906 1791 
Q 2906 2416 2648 2759 
Q 2391 3103 1925 3103 
Q 1463 3103 1205 2759 
Q 947 2416 947 1791 
Q 947 1169 1205 825 
Q 1463 481 1925 481 
Q 2391 481 2648 825 
Q 2906 1169 2906 1791 
z
M 3481 434 
Q 3481 -459 3084 -895 
Q 2688 -1331 1869 -1331 
Q 1566 -1331 1297 -1286 
Q 1028 -1241 775 -1147 
L 775 -588 
Q 1028 -725 1275 -790 
Q 1522 -856 1778 -856 
Q 2344 -856 2625 -561 
Q 2906 -266 2906 331 
L 2906 616 
Q 2728 306 2450 153 
Q 2172 0 1784 0 
Q 1141 0 747 490 
Q 353 981 353 1791 
Q 353 2603 747 3093 
Q 1141 3584 1784 3584 
Q 2172 3584 2450 3431 
Q 2728 3278 2906 2969 
L 2906 3500 
L 3481 3500 
L 3481 434 
z
" transform="scale(0.015625)"/>
       <path id="DejaVuSans-68" d="M 3513 2113 
L 3513 0 
L 2938 0 
L 2938 2094 
Q 2938 2591 2744 2837 
Q 2550 3084 2163 3084 
Q 1697 3084 1428 2787 
Q 1159 2491 1159 1978 
L 1159 0 
L 581 0 
L 581 4863 
L 1159 4863 
L 1159 2956 
Q 1366 3272 1645 3428 
Q 1925 3584 2291 3584 
Q 2894 3584 3203 3211 
Q 3513 2838 3513 2113 
z
" transform="scale(0.015625)"/>
      </defs>
      <use xlink:href="#DejaVuSans-4c"/>
      <use xlink:href="#DejaVuSans-6f" x="53.962891"/>
      <use xlink:href="#DejaVuSans-67" x="115.144531"/>
      <use xlink:href="#DejaVuSans-61" x="178.621094"/>
      <use xlink:href="#DejaVuSans-72" x="239.900391"/>
      <use xlink:href="#DejaVuSans-69" x="281.013672"/>
      <use xlink:href="#DejaVuSans-74" x="308.796875"/>
      <use xlink:href="#DejaVuSans-68" x="348.005859"/>
      <use xlink:href="#DejaVuSans-6d" x="411.384766"/>
      <use xlink:href="#DejaVuSans-69" x="508.796875"/>
      <use xlink:href="#DejaVuSans-63" x="536.580078"/>
      <use xlink:href="#DejaVuSans-20" x="591.560547"/>
      <use xlink:href="#DejaVuSans-52" x="623.347656"/>
      <use xlink:href="#DejaVuSans-75" x="688.330078"/>
      <use xlink:href="#DejaVuSans-6e" x="751.708984"/>
      <use xlink:href="#DejaVuSans-74" x="815.087891"/>
      <use xlink:href="#DejaVuSans-69" x="854.296875"/>
      <use xlink:href="#DejaVuSans-6d" x="882.080078"/>
      <use xlink:href="#DejaVuSans-65" x="979.492188"/>
     </g>
    </g>
    <g id="line2d_12">
     <path d="M 274.559375 123.650937 
L 284.559375 123.650937 
L 294.559375 123.650937 
" style="fill: none; stroke: #9467bd; stroke-width: 1.5; stroke-linecap: square"/>
    </g>
    <g id="text_8">
     <!-- Constant Runtime -->
     <g transform="translate(302.559375 127.150937)scale(0.1 -0.1)">
      <use xlink:href="#DejaVuSans-43"/>
      <use xlink:href="#DejaVuSans-6f" x="69.824219"/>
      <use xlink:href="#DejaVuSans-6e" x="131.005859"/>
      <use xlink:href="#DejaVuSans-73" x="194.384766"/>
      <use xlink:href="#DejaVuSans-74" x="246.484375"/>
      <use xlink:href="#DejaVuSans-61" x="285.693359"/>
      <use xlink:href="#DejaVuSans-6e" x="346.972656"/>
      <use xlink:href="#DejaVuSans-74" x="410.351562"/>
      <use xlink:href="#DejaVuSans-20" x="449.560547"/>
      <use xlink:href="#DejaVuSans-52" x="481.347656"/>
      <use xlink:href="#DejaVuSans-75" x="546.330078"/>
      <use xlink:href="#DejaVuSans-6e" x="609.708984"/>
      <use xlink:href="#DejaVuSans-74" x="673.087891"/>
      <use xlink:href="#DejaVuSans-69" x="712.296875"/>
      <use xlink:href="#DejaVuSans-6d" x="740.080078"/>
      <use xlink:href="#DejaVuSans-65" x="837.492188"/>
     </g>
    </g>
    <g id="line2d_13">
     <path d="M 274.559375 138.329062 
L 284.559375 138.329062 
L 294.559375 138.329062 
" style="fill: none; stroke: #8c564b; stroke-width: 1.5; stroke-linecap: square"/>
    </g>
    <g id="text_9">
     <!-- Exponential Runtime -->
     <g transform="translate(302.559375 141.829062)scale(0.1 -0.1)">
      <use xlink:href="#DejaVuSans-45"/>
      <use xlink:href="#DejaVuSans-78" x="63.183594"/>
      <use xlink:href="#DejaVuSans-70" x="122.363281"/>
      <use xlink:href="#DejaVuSans-6f" x="185.839844"/>
      <use xlink:href="#DejaVuSans-6e" x="247.021484"/>
      <use xlink:href="#DejaVuSans-65" x="310.400391"/>
      <use xlink:href="#DejaVuSans-6e" x="371.923828"/>
      <use xlink:href="#DejaVuSans-74" x="435.302734"/>
      <use xlink:href="#DejaVuSans-69" x="474.511719"/>
      <use xlink:href="#DejaVuSans-61" x="502.294922"/>
      <use xlink:href="#DejaVuSans-6c" x="563.574219"/>
      <use xlink:href="#DejaVuSans-20" x="591.357422"/>
      <use xlink:href="#DejaVuSans-52" x="623.144531"/>
      <use xlink:href="#DejaVuSans-75" x="688.126953"/>
      <use xlink:href="#DejaVuSans-6e" x="751.505859"/>
      <use xlink:href="#DejaVuSans-74" x="814.884766"/>
      <use xlink:href="#DejaVuSans-69" x="854.09375"/>
      <use xlink:href="#DejaVuSans-6d" x="881.876953"/>
      <use xlink:href="#DejaVuSans-65" x="979.289062"/>
     </g>
    </g>
    <g id="line2d_14">
     <path d="M 274.559375 153.007187 
L 284.559375 153.007187 
L 294.559375 153.007187 
" style="fill: none; stroke: #e377c2; stroke-width: 1.5; stroke-linecap: square"/>
    </g>
    <g id="text_10">
     <!-- Factorial/Combinatorial Runtime -->
     <g transform="translate(302.559375 156.507187)scale(0.1 -0.1)">
      <defs>
       <path id="DejaVuSans-46" d="M 628 4666 
L 3309 4666 
L 3309 4134 
L 1259 4134 
L 1259 2759 
L 3109 2759 
L 3109 2228 
L 1259 2228 
L 1259 0 
L 628 0 
L 628 4666 
z
" transform="scale(0.015625)"/>
       <path id="DejaVuSans-2f" d="M 1625 4666 
L 2156 4666 
L 531 -594 
L 0 -594 
L 1625 4666 
z
" transform="scale(0.015625)"/>
       <path id="DejaVuSans-62" d="M 3116 1747 
Q 3116 2381 2855 2742 
Q 2594 3103 2138 3103 
Q 1681 3103 1420 2742 
Q 1159 2381 1159 1747 
Q 1159 1113 1420 752 
Q 1681 391 2138 391 
Q 2594 391 2855 752 
Q 3116 1113 3116 1747 
z
M 1159 2969 
Q 1341 3281 1617 3432 
Q 1894 3584 2278 3584 
Q 2916 3584 3314 3078 
Q 3713 2572 3713 1747 
Q 3713 922 3314 415 
Q 2916 -91 2278 -91 
Q 1894 -91 1617 61 
Q 1341 213 1159 525 
L 1159 0 
L 581 0 
L 581 4863 
L 1159 4863 
L 1159 2969 
z
" transform="scale(0.015625)"/>
      </defs>
      <use xlink:href="#DejaVuSans-46"/>
      <use xlink:href="#DejaVuSans-61" x="48.394531"/>
      <use xlink:href="#DejaVuSans-63" x="109.673828"/>
      <use xlink:href="#DejaVuSans-74" x="164.654297"/>
      <use xlink:href="#DejaVuSans-6f" x="203.863281"/>
      <use xlink:href="#DejaVuSans-72" x="265.044922"/>
      <use xlink:href="#DejaVuSans-69" x="306.158203"/>
      <use xlink:href="#DejaVuSans-61" x="333.941406"/>
      <use xlink:href="#DejaVuSans-6c" x="395.220703"/>
      <use xlink:href="#DejaVuSans-2f" x="423.003906"/>
      <use xlink:href="#DejaVuSans-43" x="456.695312"/>
      <use xlink:href="#DejaVuSans-6f" x="526.519531"/>
      <use xlink:href="#DejaVuSans-6d" x="587.701172"/>
      <use xlink:href="#DejaVuSans-62" x="685.113281"/>
      <use xlink:href="#DejaVuSans-69" x="748.589844"/>
      <use xlink:href="#DejaVuSans-6e" x="776.373047"/>
      <use xlink:href="#DejaVuSans-61" x="839.751953"/>
      <use xlink:href="#DejaVuSans-74" x="901.03125"/>
      <use xlink:href="#DejaVuSans-6f" x="940.240234"/>
      <use xlink:href="#DejaVuSans-72" x="1001.421875"/>
      <use xlink:href="#DejaVuSans-69" x="1042.535156"/>
      <use xlink:href="#DejaVuSans-61" x="1070.318359"/>
      <use xlink:href="#DejaVuSans-6c" x="1131.597656"/>
      <use xlink:href="#DejaVuSans-20" x="1159.380859"/>
      <use xlink:href="#DejaVuSans-52" x="1191.167969"/>
      <use xlink:href="#DejaVuSans-75" x="1256.150391"/>
      <use xlink:href="#DejaVuSans-6e" x="1319.529297"/>
      <use xlink:href="#DejaVuSans-74" x="1382.908203"/>
      <use xlink:href="#DejaVuSans-69" x="1422.117188"/>
      <use xlink:href="#DejaVuSans-6d" x="1449.900391"/>
      <use xlink:href="#DejaVuSans-65" x="1547.3125"/>
     </g>
    </g>
   </g>
  </g>
 </g>
 <defs>
  <clipPath id="pcda1f4bdad">
   <rect x="90" y="51.84" width="558" height="332.64"/>
  </clipPath>
 </defs>
</svg>
